<svg width="167" height="44" viewBox="0 0 167 44" fill="none" xmlns="http://www.w3.org/2000/svg">
<path d="M2.19727 35V9.6875H15.9258C22.0781 9.6875 25.1543 12.3008 25.1543 17.5273C25.1543 22.7422 21.709 25.3496 14.8184 25.3496H9.4043V35H2.19727ZM17.7891 35L10.0723 23.416H17.9824L25.8574 35H17.7891ZM9.4043 19.8652H15.3281C16.1953 19.8652 16.8633 19.666 17.332 19.2676C17.8008 18.8574 18.0352 18.2773 18.0352 17.5273C18.0352 16.7656 17.7891 16.1855 17.2969 15.7871C16.8047 15.377 16.0957 15.1719 15.1699 15.1719H9.4043V19.8652ZM32.381 35V26.2637L23.6974 9.6875H31.2912L36.2834 21.4297H35.5802L40.6076 9.6875H48.2013L39.588 26.1934V35H32.381ZM58.2405 35.4922C55.5921 35.4922 53.3011 34.9648 51.3675 33.9102C49.4339 32.8438 47.9456 31.3262 46.9027 29.3574C45.8597 27.3887 45.3382 25.0508 45.3382 22.3438C45.3382 19.6367 45.8597 17.3047 46.9027 15.3477C47.9456 13.3789 49.4339 11.8613 51.3675 10.7949C53.3011 9.72852 55.5921 9.19531 58.2405 9.19531C60.9007 9.19531 63.1917 9.72852 65.1136 10.7949C67.0472 11.8613 68.5355 13.3789 69.5784 15.3477C70.6214 17.3047 71.1429 19.6367 71.1429 22.3438C71.1429 25.0508 70.6214 27.3887 69.5784 29.3574C68.5355 31.3262 67.0472 32.8438 65.1136 33.9102C63.1917 34.9648 60.9007 35.4922 58.2405 35.4922ZM58.2405 29.3398C59.4007 29.3398 60.3851 29.0703 61.1937 28.5312C62.0023 27.9805 62.6116 27.1836 63.0218 26.1406C63.4437 25.0977 63.6546 23.832 63.6546 22.3438C63.6546 20.8438 63.4437 19.5781 63.0218 18.5469C62.6116 17.5039 62.0023 16.7129 61.1937 16.1738C60.3851 15.623 59.4007 15.3477 58.2405 15.3477C57.0804 15.3477 56.096 15.623 55.2874 16.1738C54.4905 16.7129 53.8812 17.5039 53.4593 18.5469C53.0374 19.5781 52.8265 20.8438 52.8265 22.3438C52.8265 23.832 53.0374 25.0977 53.4593 26.1406C53.8812 27.1836 54.4905 27.9805 55.2874 28.5312C56.096 29.0703 57.0804 29.3398 58.2405 29.3398ZM82.518 35.4922C80.6665 35.4922 78.8911 35.2344 77.1919 34.7188C75.4927 34.1914 74.0571 33.3594 72.8852 32.2227C71.7134 31.0742 70.9809 29.5742 70.688 27.7227L77.8423 26.2812C77.9477 27.4883 78.3696 28.3555 79.1079 28.8828C79.8462 29.3984 80.9243 29.6562 82.3423 29.6562C83.3852 29.6562 84.1645 29.5508 84.6802 29.3398C85.1958 29.1289 85.5356 28.877 85.6997 28.584C85.8755 28.2793 85.9634 27.9922 85.9634 27.7227C85.9634 27.0781 85.6352 26.5625 84.979 26.1758C84.3227 25.7773 83.5083 25.502 82.5356 25.3496L80.5669 25.0332C79.477 24.8574 78.4106 24.6113 77.3677 24.2949C76.3247 23.9668 75.3813 23.5215 74.5376 22.959C73.6938 22.3848 73.02 21.6523 72.5161 20.7617C72.0239 19.8594 71.7778 18.752 71.7778 17.4395C71.7778 15.752 72.2055 14.293 73.061 13.0625C73.9165 11.832 75.1235 10.8828 76.6821 10.2148C78.2407 9.53516 80.0747 9.19531 82.1841 9.19531C84.0356 9.19531 85.7524 9.4707 87.3344 10.0215C88.9165 10.5605 90.2466 11.3691 91.3247 12.4473C92.4028 13.5137 93.1001 14.8379 93.4165 16.4199L86.4204 17.8789C86.3032 17.3281 86.1274 16.8418 85.893 16.4199C85.6587 15.9863 85.2954 15.6465 84.8032 15.4004C84.311 15.1543 83.6079 15.0312 82.6938 15.0312C81.8032 15.0312 81.1235 15.1426 80.6548 15.3652C80.186 15.5762 79.8637 15.834 79.688 16.1387C79.5239 16.4316 79.4419 16.7129 79.4419 16.9824C79.4419 17.6855 79.8813 18.2012 80.7602 18.5293C81.6391 18.8457 82.6997 19.1035 83.9419 19.3027L85.9985 19.6367C87.2407 19.8359 88.4477 20.2109 89.6196 20.7617C90.8032 21.3125 91.7759 22.1094 92.5376 23.1523C93.2993 24.1836 93.6802 25.5312 93.6802 27.1953C93.6802 29.0234 93.188 30.5527 92.2036 31.7832C91.2309 33.0137 89.9009 33.9395 88.2134 34.5605C86.5376 35.1816 84.6391 35.4922 82.518 35.4922ZM106.303 35.4922C103.772 35.4922 101.622 35.0879 99.8522 34.2793C98.0944 33.459 96.7526 32.2695 95.8268 30.7109C94.9127 29.1406 94.4557 27.2305 94.4557 24.9805V9.6875H101.663V24.875C101.663 26.3633 102.044 27.4824 102.805 28.2324C103.579 28.9707 104.745 29.3398 106.303 29.3398C107.862 29.3398 109.022 28.9473 109.784 28.1621C110.557 27.377 110.944 26.1172 110.944 24.3828V9.6875H118.151V24.9805C118.151 27.2305 117.688 29.1406 116.762 30.7109C115.848 32.2695 114.512 33.459 112.755 34.2793C110.997 35.0879 108.846 35.4922 106.303 35.4922ZM120.104 35V9.6875H127.311V18.9512L136.206 9.6875H144.784L135.696 19.0215L145.804 35H137.647L130.897 23.8027L127.311 27.5293V35H120.104ZM145.894 35V9.6875H164.685V15.8398H153.101V18.916H162.645V24.7168H153.101V28.8477H164.931V35H145.894Z" fill="#101011"/>
</svg>
