<svg width="167" height="44" viewBox="0 0 167 44" fill="none" xmlns="http://www.w3.org/2000/svg">
<path d="M2.19727 35V9.6875H15.9258C22.0781 9.6875 25.1543 12.3008 25.1543 17.5273C25.1543 22.7422 21.709 25.3496 14.8184 25.3496H9.4043V35H2.19727ZM17.7891 35L10.0723 23.416H17.9824L25.8574 35H17.7891ZM9.4043 19.8652H15.3281C16.1953 19.8652 16.8633 19.666 17.332 19.2676C17.8008 18.8574 18.0352 18.2773 18.0352 17.5273C18.0352 16.7656 17.7891 16.1855 17.2969 15.7871C16.8047 15.377 16.0957 15.1719 15.1699 15.1719H9.4043V19.8652ZM32.4162 35V26.2637L23.7326 9.6875H31.3263L36.3185 21.4297H35.6154L40.6427 9.6875H48.2365L39.6232 26.1934V35H32.4162ZM58.346 35.4922C55.6976 35.4922 53.4066 34.9648 51.473 33.9102C49.5394 32.8438 48.0511 31.3262 47.0081 29.3574C45.9652 27.3887 45.4437 25.0508 45.4437 22.3438C45.4437 19.6367 45.9652 17.3047 47.0081 15.3477C48.0511 13.3789 49.5394 11.8613 51.473 10.7949C53.4066 9.72852 55.6976 9.19531 58.346 9.19531C61.0062 9.19531 63.2972 9.72852 65.2191 10.7949C67.1527 11.8613 68.6409 13.3789 69.6839 15.3477C70.7269 17.3047 71.2484 19.6367 71.2484 22.3438C71.2484 25.0508 70.7269 27.3887 69.6839 29.3574C68.6409 31.3262 67.1527 32.8438 65.2191 33.9102C63.2972 34.9648 61.0062 35.4922 58.346 35.4922ZM58.346 29.3398C59.5062 29.3398 60.4905 29.0703 61.2991 28.5312C62.1077 27.9805 62.7171 27.1836 63.1273 26.1406C63.5491 25.0977 63.7601 23.832 63.7601 22.3438C63.7601 20.8438 63.5491 19.5781 63.1273 18.5469C62.7171 17.5039 62.1077 16.7129 61.2991 16.1738C60.4905 15.623 59.5062 15.3477 58.346 15.3477C57.1859 15.3477 56.2015 15.623 55.3929 16.1738C54.596 16.7129 53.9866 17.5039 53.5648 18.5469C53.1429 19.5781 52.932 20.8438 52.932 22.3438C52.932 23.832 53.1429 25.0977 53.5648 26.1406C53.9866 27.1836 54.596 27.9805 55.3929 28.5312C56.2015 29.0703 57.1859 29.3398 58.346 29.3398ZM82.6235 35.4922C80.7719 35.4922 78.9966 35.2344 77.2973 34.7188C75.5981 34.1914 74.1626 33.3594 72.9907 32.2227C71.8188 31.0742 71.0864 29.5742 70.7934 27.7227L77.9477 26.2812C78.0532 27.4883 78.4751 28.3555 79.2134 28.8828C79.9516 29.3984 81.0298 29.6562 82.4477 29.6562C83.4907 29.6562 84.27 29.5508 84.7856 29.3398C85.3012 29.1289 85.6411 28.877 85.8052 28.584C85.9809 28.2793 86.0688 27.9922 86.0688 27.7227C86.0688 27.0781 85.7407 26.5625 85.0844 26.1758C84.4282 25.7773 83.6137 25.502 82.6411 25.3496L80.6723 25.0332C79.5825 24.8574 78.5161 24.6113 77.4731 24.2949C76.4302 23.9668 75.4868 23.5215 74.643 22.959C73.7993 22.3848 73.1255 21.6523 72.6216 20.7617C72.1294 19.8594 71.8833 18.752 71.8833 17.4395C71.8833 15.752 72.311 14.293 73.1665 13.0625C74.0219 11.832 75.229 10.8828 76.7876 10.2148C78.3462 9.53516 80.1802 9.19531 82.2895 9.19531C84.1411 9.19531 85.8579 9.4707 87.4399 10.0215C89.0219 10.5605 90.352 11.3691 91.4302 12.4473C92.5083 13.5137 93.2055 14.8379 93.5219 16.4199L86.5259 17.8789C86.4087 17.3281 86.2329 16.8418 85.9985 16.4199C85.7641 15.9863 85.4009 15.6465 84.9087 15.4004C84.4165 15.1543 83.7134 15.0312 82.7993 15.0312C81.9087 15.0312 81.229 15.1426 80.7602 15.3652C80.2915 15.5762 79.9692 15.834 79.7934 16.1387C79.6294 16.4316 79.5473 16.7129 79.5473 16.9824C79.5473 17.6855 79.9868 18.2012 80.8657 18.5293C81.7446 18.8457 82.8052 19.1035 84.0473 19.3027L86.104 19.6367C87.3462 19.8359 88.5532 20.2109 89.7251 20.7617C90.9087 21.3125 91.8813 22.1094 92.643 23.1523C93.4048 24.1836 93.7856 25.5312 93.7856 27.1953C93.7856 29.0234 93.2934 30.5527 92.3091 31.7832C91.3364 33.0137 90.0063 33.9395 88.3188 34.5605C86.643 35.1816 84.7446 35.4922 82.6235 35.4922ZM106.444 35.4922C103.913 35.4922 101.762 35.0879 99.9928 34.2793C98.235 33.459 96.8932 32.2695 95.9674 30.7109C95.0534 29.1406 94.5963 27.2305 94.5963 24.9805V9.6875H101.803V24.875C101.803 26.3633 102.184 27.4824 102.946 28.2324C103.719 28.9707 104.885 29.3398 106.444 29.3398C108.003 29.3398 109.163 28.9473 109.924 28.1621C110.698 27.377 111.085 26.1172 111.085 24.3828V9.6875H118.292V24.9805C118.292 27.2305 117.829 29.1406 116.903 30.7109C115.989 32.2695 114.653 33.459 112.895 34.2793C111.137 35.0879 108.987 35.4922 106.444 35.4922ZM120.28 35V9.6875H127.487V18.9512L136.382 9.6875H144.96L135.872 19.0215L145.979 35H137.823L131.073 23.8027L127.487 27.5293V35H120.28ZM146.069 35V9.6875H164.86V15.8398H153.276V18.916H162.821V24.7168H153.276V28.8477H165.106V35H146.069Z" fill="#E8E7E0"/>
</svg>
